<?xml version="1.0" standalone="no"?>
<!DOCTYPE svg PUBLIC "-//W3C//DTD SVG 20010904//EN"
 "http://www.w3.org/TR/2001/REC-SVG-20010904/DTD/svg10.dtd">
<svg version="1.0" xmlns="http://www.w3.org/2000/svg"
 width="300.000000pt" height="300.000000pt" viewBox="0 0 300.000000 300.000000"
 preserveAspectRatio="xMidYMid meet">
<metadata>
Created by potrace 1.10, written by Peter Selinger 2001-2011
</metadata>
<g transform="translate(0.000000,300.000000) scale(0.100000,-0.100000)"
fill="#000000" stroke="none">
<path d="M1142 2990 c-561 -79 -997 -488 -1118 -1051 -25 -117 -26 -380 -1
-499 116 -547 529 -952 1066 -1045 118 -20 329 -20 446 0 172 30 357 103 497
197 l66 45 299 -300 c193 -194 312 -306 338 -318 73 -34 144 -22 204 34 62 60
78 137 41 211 -12 26 -130 151 -318 339 l-299 299 45 66 c94 140 167 325 197
497 20 117 20 328 0 446 -93 535 -501 952 -1040 1064 -93 19 -332 28 -423 15z
m438 -405 c238 -77 416 -216 538 -421 281 -473 93 -1084 -409 -1324 -449 -214
-1006 -25 -1229 420 -70 139 -92 227 -98 386 -3 109 -1 160 13 225 74 369 353
651 725 734 46 10 110 14 220 11 137 -3 165 -6 240 -31z"/>
</g>
</svg>
